<svg width="260" height="94" viewBox="0 0 260 94" fill="none" xmlns="http://www.w3.org/2000/svg">
<g clip-path="url(#clip0_23_16944)">
<g opacity="0.4">
<path d="M95.2479 1.33446L106.85 5.27561L95.2479 9.21677C89.9518 11.0145 84.1302 10.1917 79.5234 6.99036L77.0596 5.28252L79.5234 3.57469C84.1302 0.373367 89.9518 -0.449436 95.2479 1.34828V1.33446Z" fill="#FDE1AD"/>
<path d="M103.322 5.2687L112.331 10.5374V0L103.322 5.2687Z" fill="#FDE1AD"/>
</g>
<path d="M86.239 13.2547L97.8412 17.1959L86.239 21.1371C80.9429 22.9348 75.1212 22.112 70.5145 18.9106L68.0507 17.2028L70.5145 15.495C75.1212 12.2937 80.9429 11.4709 86.239 13.2686V13.2547Z" fill="#FDE1AD"/>
<path d="M94.3128 17.1959L103.322 22.4646V11.9203L94.3128 17.1959Z" fill="#FDE1AD"/>
<g opacity="0.8">
<path d="M122.868 13.2547L134.47 17.1959L122.868 21.1371C117.572 22.9348 111.75 22.112 107.143 18.9106L104.68 17.2028L107.143 15.495C111.75 12.2937 117.572 11.4709 122.868 13.2686V13.2547Z" fill="#FDE1AD"/>
<path d="M130.942 17.1959L139.951 22.4646V11.9203L130.942 17.1959Z" fill="#FDE1AD"/>
</g>
<g opacity="0.2">
<path d="M159.504 13.2547L171.106 17.1959L159.504 21.1371C154.208 22.9348 148.386 22.112 143.779 18.9106L141.315 17.2028L143.779 15.495C148.386 12.2937 154.208 11.4709 159.504 13.2686V13.2547Z" fill="#FDE1AD"/>
<path d="M167.571 17.1959L176.586 22.4646V11.9203L167.571 17.1959Z" fill="#FDE1AD"/>
</g>
<path d="M196.133 13.2547L207.736 17.1959L196.133 21.1371C190.837 22.9348 185.016 22.112 180.409 18.9106L177.945 17.2028L180.409 15.495C185.016 12.2937 190.837 11.4709 196.133 13.2686V13.2547Z" fill="#FDE1AD"/>
<path d="M204.207 17.1959L213.216 22.4646V11.9203L204.207 17.1959Z" fill="#FDE1AD"/>
<path d="M232.769 13.2547L244.371 17.1959L232.769 21.1371C227.473 22.9348 221.651 22.112 217.044 18.9106L214.581 17.2028L217.044 15.495C221.651 12.2937 227.473 11.4709 232.769 13.2686V13.2547Z" fill="#FDE1AD"/>
<path d="M240.836 17.1959L249.845 22.4646V11.9203L240.836 17.1959Z" fill="#FDE1AD"/>
<path d="M96.3943 25.1749L107.997 29.1161L96.3943 33.0572C91.0982 34.8549 85.2766 34.0321 80.6698 30.8308L78.206 29.123L80.6698 27.4151C85.2766 24.2138 91.0982 23.391 96.3943 25.1887V25.1749Z" fill="#FDE1AD"/>
<path d="M104.461 29.1161L113.477 34.3848V23.8474L104.461 29.1161Z" fill="#FDE1AD"/>
<g opacity="0.6">
<path d="M133.023 25.1749L144.626 29.1161L133.023 33.0572C127.727 34.8549 121.906 34.0321 117.299 30.8308L114.835 29.123L117.299 27.4151C121.906 24.2138 127.727 23.391 133.023 25.1887V25.1749Z" fill="#FDE1AD"/>
<path d="M141.097 29.1161L150.106 34.3848V23.8474L141.097 29.1161Z" fill="#FDE1AD"/>
</g>
<g opacity="0.8">
<path d="M169.66 25.1749L181.262 29.1161L169.66 33.0572C164.363 34.8549 158.542 34.0321 153.935 30.8308L151.471 29.123L153.935 27.4151C158.542 24.2138 164.363 23.391 169.66 25.1887V25.1749Z" fill="#FDE1AD"/>
<path d="M177.727 29.1161L186.735 34.3848V23.8474L177.727 29.1161Z" fill="#FDE1AD"/>
</g>
<g opacity="0.4">
<path d="M206.289 25.1749L217.891 29.1161L206.289 33.0572C200.992 34.8549 195.171 34.0321 190.564 30.8308L188.1 29.123L190.564 27.4151C195.171 24.2138 200.992 23.391 206.289 25.1887V25.1749Z" fill="#FDE1AD"/>
<path d="M214.362 29.1161L223.371 34.3848V23.8474L214.362 29.1161Z" fill="#FDE1AD"/>
</g>
<g opacity="0.4">
<path d="M242.924 25.1749L254.526 29.1161L242.924 33.0572C237.628 34.8549 231.807 34.0321 227.2 30.8308L224.736 29.123L227.2 27.4151C231.807 24.2138 237.628 23.391 242.924 25.1887V25.1749Z" fill="#FDE1AD"/>
<path d="M250.991 29.1161L260 34.3848V23.8474L250.991 29.1161Z" fill="#FDE1AD"/>
</g>
<g opacity="0.6">
<path d="M59.7653 25.1749L71.3676 29.1161L59.7653 33.0572C54.4692 34.8549 48.6476 34.0321 44.0408 30.8308L41.577 29.123L44.0408 27.4151C48.6476 24.2138 54.4692 23.391 59.7653 25.1887V25.1749Z" fill="#FDE1AD"/>
<path d="M67.8323 29.1161L76.8411 34.3848V23.8474L67.8323 29.1161Z" fill="#FDE1AD"/>
</g>
<path d="M69.2314 37.1022L80.8337 41.0433L69.2314 44.9845C63.9353 46.7822 58.1137 45.9594 53.5069 42.7581L51.0432 41.0502L53.5069 39.3424C58.1137 36.1411 63.9353 35.3183 69.2314 37.116V37.1022Z" fill="#FDE1AD"/>
<path d="M77.2984 41.0364L86.3072 46.3051V35.7677L77.2984 41.0364Z" fill="#FDE1AD"/>
<g opacity="0.8">
<path d="M105.86 37.1022L117.463 41.0433L105.86 44.9845C100.564 46.7822 94.7427 45.9594 90.136 42.7581L87.6722 41.0502L90.136 39.3424C94.7427 36.1411 100.564 35.3183 105.86 37.116V37.1022Z" fill="#FDE1AD"/>
<path d="M113.934 41.0364L122.943 46.3051V35.7677L113.934 41.0364Z" fill="#FDE1AD"/>
</g>
<path d="M142.496 37.1022L154.098 41.0433L142.496 44.9845C137.2 46.7822 131.378 45.9594 126.772 42.7581L124.308 41.0502L126.772 39.3424C131.378 36.1411 137.2 35.3183 142.496 37.116V37.1022Z" fill="#FDE1AD"/>
<path d="M150.563 41.0364L159.572 46.3051V35.7677L150.563 41.0364Z" fill="#FDE1AD"/>
<path d="M179.125 37.1022L190.727 41.0433L179.125 44.9845C173.829 46.7822 168.007 45.9594 163.401 42.7581L160.937 41.0502L163.401 39.3424C168.007 36.1411 173.829 35.3183 179.125 37.116V37.1022Z" fill="#FDE1AD"/>
<path d="M187.192 41.0364L196.208 46.3051V35.7677L187.192 41.0364Z" fill="#FDE1AD"/>
<path d="M215.755 37.1022L227.357 41.0433L215.755 44.9845C210.459 46.7822 204.637 45.9594 200.03 42.7581L197.566 41.0502L200.03 39.3424C204.637 36.1411 210.459 35.3183 215.755 37.116V37.1022Z" fill="#FDE1AD"/>
<path d="M223.829 41.0364L232.837 46.3051V35.7677L223.829 41.0364Z" fill="#FDE1AD"/>
<g opacity="0.2">
<path d="M32.5958 37.1022L44.1981 41.0433L32.5958 44.9845C27.2997 46.7822 21.4781 45.9594 16.8713 42.7581L14.4075 41.0502L16.8713 39.3424C21.4781 36.1411 27.2997 35.3183 32.5958 37.116V37.1022Z" fill="#FDE1AD"/>
<path d="M40.6696 41.0364L49.6784 46.3051V35.7677L40.6696 41.0364Z" fill="#FDE1AD"/>
</g>
<path d="M91.4529 49.0224L103.055 52.9636L91.4529 56.9048C86.1568 58.7025 80.3352 57.8797 75.7284 54.6783L73.2646 52.9705L75.7284 51.2627C80.3352 48.0614 86.1568 47.2386 91.4529 49.0363V49.0224Z" fill="#FDE1AD"/>
<path d="M99.5199 52.9636L108.529 58.2323V47.688L99.5199 52.9636Z" fill="#FDE1AD"/>
<g opacity="0.6">
<path d="M128.082 49.0224L139.684 52.9636L128.082 56.9048C122.786 58.7025 116.964 57.8797 112.357 54.6783L109.894 52.9705L112.357 51.2627C116.964 48.0614 122.786 47.2386 128.082 49.0363V49.0224Z" fill="#FDE1AD"/>
<path d="M136.156 52.9636L145.165 58.2323V47.688L136.156 52.9636Z" fill="#FDE1AD"/>
</g>
<path d="M164.718 49.0224L176.321 52.9636L164.718 56.9048C159.422 58.7025 153.601 57.8797 148.994 54.6783L146.53 52.9705L148.994 51.2627C153.601 48.0614 159.422 47.2386 164.718 49.0363V49.0224Z" fill="#FDE1AD"/>
<path d="M172.785 52.9636L181.794 58.2323V47.688L172.785 52.9636Z" fill="#FDE1AD"/>
<g opacity="0.4">
<path d="M201.347 49.0224L212.949 52.9636L201.347 56.9048C196.051 58.7025 190.23 57.8797 185.623 54.6783L183.159 52.9705L185.623 51.2627C190.23 48.0614 196.051 47.2386 201.347 49.0363V49.0224Z" fill="#FDE1AD"/>
<path d="M209.414 52.9636L218.43 58.2323V47.688L209.414 52.9636Z" fill="#FDE1AD"/>
</g>
<path d="M237.976 49.0224L249.578 52.9636L237.976 56.9048C232.68 58.7025 226.859 57.8797 222.252 54.6783L219.788 52.9705L222.252 51.2627C226.859 48.0614 232.68 47.2386 237.976 49.0363V49.0224Z" fill="#FDE1AD"/>
<path d="M246.05 52.9636L255.059 58.2323V47.688L246.05 52.9636Z" fill="#FDE1AD"/>
<path d="M18.1883 49.0224L29.7905 52.9636L18.1883 56.9048C12.8922 58.7025 7.07056 57.8797 2.46378 54.6783L0 52.9705L2.46378 51.2627C7.07056 48.0614 12.8922 47.2386 18.1883 49.0363V49.0224Z" fill="#FDE1AD"/>
<path d="M26.2552 52.9636L35.2641 58.2323V47.688L26.2552 52.9636Z" fill="#FDE1AD"/>
<g opacity="0.8">
<path d="M54.8172 49.0224L66.4195 52.9636L54.8172 56.9048C49.5211 58.7025 43.6995 57.8797 39.0927 54.6783L36.629 52.9705L39.0927 51.2627C43.6995 48.0614 49.5211 47.2386 54.8172 49.0363V49.0224Z" fill="#FDE1AD"/>
<path d="M62.8911 52.9636L71.8999 58.2323V47.688L62.8911 52.9636Z" fill="#FDE1AD"/>
</g>
<g opacity="0.4">
<path d="M120.493 60.9426L132.095 64.8838L120.493 68.8249C115.197 70.6226 109.376 69.7998 104.769 66.5985L102.305 64.8907L104.769 63.1828C109.376 59.9815 115.197 59.1587 120.493 60.9564V60.9426Z" fill="#FDE1AD"/>
<path d="M128.56 64.8838L137.569 70.1525V59.6151L128.56 64.8838Z" fill="#FDE1AD"/>
</g>
<g opacity="0.6">
<path d="M157.122 60.9426L168.724 64.8838L157.122 68.8249C151.826 70.6226 146.005 69.7998 141.398 66.5985L138.934 64.8907L141.398 63.1828C146.005 59.9815 151.826 59.1587 157.122 60.9564V60.9426Z" fill="#FDE1AD"/>
<path d="M165.196 64.8838L174.205 70.1525V59.6151L165.196 64.8838Z" fill="#FDE1AD"/>
</g>
<path d="M193.758 60.9426L205.36 64.8838L193.758 68.8249C188.462 70.6226 182.64 69.7998 178.033 66.5985L175.57 64.8907L178.033 63.1828C182.64 59.9815 188.462 59.1587 193.758 60.9564V60.9426Z" fill="#FDE1AD"/>
<path d="M201.825 64.8838L210.834 70.1525V59.6151L201.825 64.8838Z" fill="#FDE1AD"/>
<g opacity="0.8">
<path d="M230.387 60.9426L241.989 64.8838L230.387 68.8249C225.091 70.6226 219.269 69.7998 214.662 66.5985L212.199 64.8907L214.662 63.1828C219.269 59.9815 225.091 59.1587 230.387 60.9564V60.9426Z" fill="#FDE1AD"/>
<path d="M238.461 64.8838L247.469 70.1525V59.6151L238.461 64.8838Z" fill="#FDE1AD"/>
</g>
<path d="M171.754 72.8699L183.357 76.811L171.754 80.7522C166.458 82.5499 160.637 81.7271 156.03 78.5258L153.566 76.8179L156.03 75.1101C160.637 71.9088 166.458 71.086 171.754 72.8837V72.8699Z" fill="#FDE1AD"/>
<path d="M179.821 76.8041L188.83 82.0728V71.5354L179.821 76.8041Z" fill="#FDE1AD"/>
<g opacity="0.2">
<path d="M208.383 72.8699L219.986 76.811L208.383 80.7522C203.087 82.5499 197.266 81.7271 192.659 78.5258L190.195 76.8179L192.659 75.1101C197.266 71.9088 203.087 71.086 208.383 72.8837V72.8699Z" fill="#FDE1AD"/>
<path d="M216.457 76.8041L225.466 82.0728V71.5354L216.457 76.8041Z" fill="#FDE1AD"/>
</g>
<g opacity="0.8">
<path d="M188.66 84.7901L200.262 88.7313L188.66 92.6725C183.364 94.4702 177.542 93.6474 172.935 90.446L170.472 88.7382L172.935 87.0304C177.542 83.8291 183.364 83.0063 188.66 84.804V84.7901Z" fill="#FDE1AD"/>
<path d="M196.727 88.7313L205.736 94V83.4557L196.727 88.7313Z" fill="#FDE1AD"/>
</g>
<path d="M131.884 1.33446L143.486 5.27561L131.884 9.21677C126.587 11.0145 120.766 10.1917 116.159 6.99036L113.695 5.28252L116.159 3.57469C120.766 0.373367 126.587 -0.449436 131.884 1.34828V1.33446Z" fill="#FDE1AD"/>
<path d="M139.951 5.2687L148.959 10.5374V0L139.951 5.2687Z" fill="#FDE1AD"/>
<path d="M168.513 1.33446L180.115 5.27561L168.513 9.21677C163.216 11.0145 157.395 10.1917 152.788 6.99036L150.324 5.28252L152.788 3.57469C157.395 0.373367 163.216 -0.449436 168.513 1.34828V1.33446Z" fill="#FDE1AD"/>
<path d="M176.586 5.2687L185.595 10.5374V0L176.586 5.2687Z" fill="#FDE1AD"/>
<g opacity="0.6">
<path d="M205.142 1.33446L216.744 5.27561L205.142 9.21677C199.845 11.0145 194.024 10.1917 189.417 6.99036L186.953 5.28252L189.417 3.57469C194.024 0.373367 199.845 -0.449436 205.142 1.34828V1.33446Z" fill="#FDE1AD"/>
<path d="M213.215 5.2687L222.224 10.5374V0L213.215 5.2687Z" fill="#FDE1AD"/>
</g>
<g opacity="0.8">
<path d="M241.778 1.33446L253.38 5.27561L241.778 9.21677C236.482 11.0145 230.66 10.1917 226.053 6.99036L223.59 5.28252L226.053 3.57469C230.66 0.373367 236.482 -0.449436 241.778 1.34828V1.33446Z" fill="#FDE1AD"/>
<path d="M249.845 5.2687L258.854 10.5374V0L249.845 5.2687Z" fill="#FDE1AD"/>
</g>
<path d="M2.19761 74.0453H0.191101V71.9987H6.45633V74.0453H4.43617V81.6787H2.19761V74.0453ZM9.11802 77.8067H11.9845V81.6787H14.223V71.9987H11.9845V75.7601H9.11802V71.9987H6.87947V81.6787H9.11802V77.8067ZM20.693 79.6321H17.499V77.7652H20.2971V75.8292H17.499V74.0453H20.693V71.9987H15.2604V81.6787H20.693V79.6321ZM28.3505 78.7886L29.7291 77.4334L28.3505 76.0781L26.9992 77.4334L28.3505 78.7886ZM26.6716 74.0453H29.8656V71.9987H24.433V81.6787H26.6716V74.0453ZM32.6365 71.9987H30.3979V81.6787H32.6365V71.9987ZM38.7789 79.2587C38.7789 78.5673 38.5605 77.9865 37.9462 77.3366L35.967 75.2484C35.7486 75.0272 35.6531 74.8474 35.6531 74.5985C35.6531 74.2666 35.8851 74.0453 36.2264 74.0453H38.4922V71.9987H36.0353C34.3018 71.9987 33.3053 72.9667 33.3053 74.3772C33.3053 75.1516 33.6466 75.7601 34.2335 76.3962L36.24 78.5396C36.4038 78.7056 36.4721 78.8439 36.4721 79.0513C36.4721 79.4247 36.24 79.6321 35.8578 79.6321H33.278V81.6787H36.0489C37.6869 81.6787 38.7789 80.8214 38.7789 79.2587ZM46.6684 81.6787V71.9987H44.4299V75.7601H41.5634V71.9987H39.3249V81.6787H41.5634V77.8067H44.4299V81.6787H46.6684ZM55.7318 79.6321H49.9444V77.7652H55.2405V75.8292H49.9444V74.0453H55.7318V71.9987H47.7058V81.6787H55.7318V79.6321ZM61.5466 79.2587C61.5466 78.5673 61.3282 77.9865 60.714 77.3366L58.7348 75.2484C58.5164 75.0272 58.4208 74.8474 58.4208 74.5985C58.4208 74.2666 58.6529 74.0453 58.9941 74.0453H61.26V71.9987H58.803C57.0695 71.9987 56.0731 72.9667 56.0731 74.3772C56.0731 75.1516 56.4143 75.7601 57.0013 76.3962L59.0078 78.5396C59.1716 78.7056 59.2398 78.8439 59.2398 79.0513C59.2398 79.4247 59.0078 79.6321 58.6256 79.6321H56.0458V81.6787H58.8167C60.4546 81.6787 61.5466 80.8214 61.5466 79.2587ZM64.727 76.8249C64.727 73.9485 66.7199 71.8328 69.6409 71.8328C72.562 71.8328 74.5685 73.9485 74.5685 76.8249C74.5685 79.7012 72.562 81.817 69.6409 81.817C66.7199 81.817 64.727 79.7151 64.727 76.8249ZM67.0202 76.8249C67.0202 78.5673 68.0712 79.6874 69.6409 79.6874C71.2106 79.6874 72.289 78.5673 72.289 76.8249C72.289 75.0825 71.2243 73.9624 69.6409 73.9624C68.0575 73.9624 67.0202 75.0825 67.0202 76.8249ZM77.4622 78.3322H80.3832V76.3962H77.4622V74.0453H80.6562V71.9987H75.2237V81.6787H77.4622V78.3322ZM5.89669 89.3536L2.8255 83.919H0.818989V93.599H3.00294V87.9569L6.11508 93.599H8.08064V83.919H5.89669V89.3536ZM18.5636 88.7452C18.5636 91.6353 16.5571 93.7373 13.6361 93.7373C10.715 93.7373 8.72218 91.6353 8.72218 88.7452C8.72218 85.855 10.715 83.753 13.6361 83.753C16.5571 83.753 18.5636 85.8688 18.5636 88.7452ZM16.2841 88.7452C16.2841 87.0028 15.2194 85.8826 13.6361 85.8826C12.0527 85.8826 11.0153 87.0028 11.0153 88.7452C11.0153 90.4876 12.0664 91.6077 13.6361 91.6077C15.2058 91.6077 16.2841 90.4876 16.2841 88.7452ZM26.344 89.4919L27.9273 93.599H25.484L24.1737 90.0174H21.4574V93.599H19.2188V83.919H24.2829C26.3713 83.919 27.7499 85.1359 27.7499 86.9336C27.7499 88.0399 27.2312 88.9526 26.344 89.4919ZM25.4704 87.0028C25.4704 86.2837 25.02 85.855 24.1464 85.855H21.4574V88.192H24.1464C24.979 88.192 25.4704 87.7495 25.4704 87.0028ZM27.8591 85.9656H29.8656V93.599H32.1042V85.9656H34.1243V83.919H27.8591V85.9656ZM39.6525 87.6804H36.786V83.919H34.5475V93.599H36.786V89.727H39.6525V93.599H41.891V83.919H39.6525V87.6804ZM52.7016 89.5887C52.7016 90.8609 51.8417 91.6077 50.3675 91.6077C48.6476 91.6077 47.7877 90.529 47.7877 88.8005C47.7877 87.0719 48.634 85.8826 50.3948 85.8826C51.8144 85.8826 52.7016 86.6156 52.7016 87.9431H54.9538C54.8719 85.1912 53.1384 83.753 50.4221 83.753C47.2554 83.753 45.5082 85.7443 45.5082 88.8005C45.5082 91.8566 47.2554 93.7373 50.3675 93.7373C53.1247 93.7373 54.8719 92.3129 54.9538 89.5887H52.7016ZM60.8641 83.919L64.5632 93.599H62.1609L61.533 91.8704H57.4927L56.8784 93.599H54.4761L58.1751 83.919H60.8641ZM60.8641 89.9897L59.4855 86.2007L58.1478 89.9897H60.8641ZM71.9614 89.4919L73.5447 93.599H71.1014L69.7911 90.0174H67.0748V93.599H64.8362V83.919H69.9003C71.9887 83.919 73.3673 85.1359 73.3673 86.9336C73.3673 88.0399 72.8486 88.9526 71.9614 89.4919ZM71.0878 87.0028C71.0878 86.2837 70.6373 85.855 69.7638 85.855H67.0748V88.192H69.7638C70.5964 88.192 71.0878 87.7495 71.0878 87.0028ZM83.5363 88.7452C83.5363 91.6353 81.5298 93.7373 78.6088 93.7373C75.6877 93.7373 73.6949 91.6353 73.6949 88.7452C73.6949 85.855 75.6877 83.753 78.6088 83.753C81.5298 83.753 83.5363 85.8688 83.5363 88.7452ZM81.2568 88.7452C81.2568 87.0028 80.1922 85.8826 78.6088 85.8826C77.0254 85.8826 75.988 87.0028 75.988 88.7452C75.988 90.4876 77.0391 91.6077 78.6088 91.6077C80.1785 91.6077 81.2568 90.4876 81.2568 88.7452ZM86.4301 83.919H84.1915V93.599H88.9416V91.5524H86.4301V83.919ZM89.4467 93.599H91.6852V83.919H89.4467V93.599ZM97.8549 89.3536L94.7837 83.919H92.7772V93.599H94.9612V87.9569L98.0733 93.599H100.039V83.919H97.8549V89.3536ZM110.385 93.599H107.983L107.355 91.8704H103.315L102.701 93.599H100.298L103.997 83.919H106.686L110.385 93.599ZM106.686 89.9897L105.308 86.2007L103.97 89.9897H106.686Z" fill="#F8F6F4"/>
</g>
<defs>
<clipPath id="clip0_23_16944">
<rect width="260" height="94" fill="white"/>
</clipPath>
</defs>
</svg>
